<svg width="265" xmlns="http://www.w3.org/2000/svg" height="265" id="screenshot-f8c12f4c-5fba-809a-8006-bbabf839af75" viewBox="0 0 265 265" xmlns:xlink="http://www.w3.org/1999/xlink" fill="none" version="1.1"><g id="shape-f8c12f4c-5fba-809a-8006-bbabf839af75"><g class="frame-container-wrapper"><g class="frame-container-blur"><g class="frame-container-shadows"><g fill="none"><g class="fills" id="fills-f8c12f4c-5fba-809a-8006-bbabf839af75"><rect rx="0" ry="0" x="0" y="0" width="265" height="265" transform="matrix(1.000000, 0.000000, 0.000000, 1.000000, 0.000000, 0.000000)" class="frame-background"/></g><g class="frame-children"><g id="shape-f8c12f4c-5fba-809a-8006-bbabf839af77"><g class="fills" id="fills-f8c12f4c-5fba-809a-8006-bbabf839af77"><ellipse cx="132.5" cy="132.5" rx="132.5" ry="132.5" transform="matrix(1.000000, 0.000000, 0.000000, 1.000000, 0.000000, 0.000000)"/></g></g><g id="shape-f8c12f4c-5fba-809a-8006-bbabf839af79"><g class="fills" id="fills-f8c12f4c-5fba-809a-8006-bbabf839af79"><path d="M204.357421875,112.2808837890625C211.53271484375,121.5172119140625,211.8870849609375,131.3768310546875,207.5677490234375,141.2864990234375C202.0181884765625,154.0184326171875,189.7950439453125,158.5157470703125,177.36279296875,152.4254150390625C164.7069091796875,146.2254638671875,155.634033203125,136.4002685546875,151.4578857421875,122.7813720703125C144.0914306640625,98.7586669921875,163.8162841796875,70.770263671875,189.7733154296875,68.9111328125C215.8389892578125,67.0443115234375,237.1177978515625,79.8868408203125,243.0457763671875,106.2208251953125C246.9588623046875,123.6046142578125,243.7335205078125,139.8056640625,230.4478759765625,152.7069091796875C210.0067138671875,172.5565185546875,188.9986572265625,191.80712890625,167.8553466796875,210.9073486328125C166.7425537109375,211.91259765625,165.5965576171875,212.8822021484375,164.50634765625,213.9110107421875C156.8831787109375,221.1051025390625,154.8428955078125,221.0699462890625,147.794189453125,213.5838623046875C141.740234375,207.1541748046875,135.6182861328125,200.7862548828125,129.6751708984375,194.2554931640625C127.7064208984375,192.0921630859375,125.5948486328125,191.1241455078125,122.6837158203125,191.2904052734375C111.5545654296875,191.9254150390625,100.42431640625,192.6627197265625,89.2838134765625,192.952880859375C56.6912841796875,193.8013916015625,28.53369140625,172.2352294921875,22.076904296875,141.62109375C14.6727294921875,106.5146484375,32.7125244140625,78.73193359375,58.2523193359375,64.80615234375C69.10693359375,58.8875732421875,80.9703369140625,56.08740234375,93.4566650390625,58.5999755859375C97.2421875,59.3616943359375,99.9239501953125,58.46533203125,102.9329833984375,56.0765380859375C115.0455322265625,46.4600830078125,128.9503173828125,43.9342041015625,143.9178466796875,46.9447021484375C147.2669677734375,47.618408203125,150.06103515625,49.5299072265625,150.98974609375,53.2420654296875C152.400634765625,58.8812255859375,148.6453857421875,63.6083984375,143.1494140625,62.0174560546875C128.6202392578125,57.8116455078125,117.0582275390625,62.6475830078125,106.7933349609375,72.5389404296875C103.9713134765625,75.2581787109375,100.7442626953125,75.6710205078125,97.0858154296875,74.5272216796875C65.2125244140625,64.5628662109375,33.874267578125,99.777587890625,34.9324951171875,125.1322021484375C35.830078125,146.6385498046875,47.6904296875,169.495849609375,70.7403564453125,175.9288330078125C81.868408203125,179.03466796875,93.24755859375,177.8521728515625,104.5,177.2733154296875C112.33154296875,176.8704833984375,120.1468505859375,176.7388916015625,127.9715576171875,176.7410888671875C132.446533203125,176.742431640625,135.81591796875,179.3177490234375,138.761962890625,182.3555908203125C143.5174560546875,187.2593994140625,148.2174072265625,192.2218017578125,152.7977294921875,197.2886962890625C155.16015625,199.9019775390625,157.1033935546875,200.2210693359375,159.8870849609375,197.69580078125C178.5205078125,180.79248046875,197.5311279296875,164.3031005859375,215.6724853515625,146.861083984375C217.9451904296875,144.676025390625,220.02392578125,142.258056640625,221.9798583984375,139.7801513671875C232.0013427734375,127.0848388671875,233.0758056640625,112.1585693359375,223.5487060546875,99.1534423828125C207.6453857421875,77.444091796875,182.177734375,78.691162109375,167.85888671875,100.0748291015625C163.699462890625,106.286376953125,163.14892578125,113.062744140625,166.2928466796875,120.0411376953125C169.6865234375,127.5738525390625,174.8065185546875,133.5245361328125,181.9942626953125,137.6279296875C188.1104736328125,141.1195068359375,191.836669921875,140.241943359375,194.36181640625,134.8135986328125C197.30419921875,128.4884033203125,195.088134765625,121.7559814453125,189.382568359375,119.6854248046875C187.1258544921875,118.8663330078125,184.8067626953125,119.0238037109375,182.465087890625,119.1417236328125C176.7227783203125,119.4306640625,173.770263671875,117.4290771484375,173.2821044921875,113.04638671875C172.7073974609375,107.885498046875,175.6434326171875,104.2705078125,181.442626953125,103.838134765625C190.1319580078125,103.1900634765625,197.9124755859375,105.5340576171875,204.357421875,112.2808837890625Z" style="fill: rgb(255, 255, 255); fill-opacity: 1;"/></g></g></g></g></g></g></g></g></svg>