<svg width="218" height="40" viewBox="0 0 218 40" fill="none" xmlns="http://www.w3.org/2000/svg">
<path d="M0 19.7462C0 8.84068 8.84068 0 19.7462 0H198.241C209.146 0 217.987 8.84068 217.987 19.7462C217.987 30.6518 209.146 39.4924 198.241 39.4924H19.7462C8.8407 39.4924 0 30.6518 0 19.7462Z" fill="#52AF43"/>
<path d="M53.6865 23.6621L57.0527 13.2031H59.4873L54.8994 26H53.2559L53.6865 23.6621ZM50.5752 13.2031L53.915 23.6621L54.3721 26H52.7197L48.1494 13.2031H50.5752ZM65.666 24.0928V19.5576C65.666 19.2178 65.6045 18.9248 65.4814 18.6787C65.3584 18.4326 65.1709 18.2422 64.9189 18.1074C64.6729 17.9727 64.3623 17.9053 63.9873 17.9053C63.6416 17.9053 63.3428 17.9639 63.0908 18.0811C62.8389 18.1982 62.6426 18.3564 62.502 18.5557C62.3613 18.7549 62.291 18.9805 62.291 19.2324H60.1816C60.1816 18.8574 60.2725 18.4941 60.4541 18.1426C60.6357 17.791 60.8994 17.4775 61.2451 17.2021C61.5908 16.9268 62.0039 16.71 62.4844 16.5518C62.9648 16.3936 63.5039 16.3145 64.1016 16.3145C64.8164 16.3145 65.4492 16.4346 66 16.6748C66.5566 16.915 66.9932 17.2783 67.3096 17.7646C67.6318 18.2451 67.793 18.8486 67.793 19.5752V23.8027C67.793 24.2363 67.8223 24.626 67.8809 24.9717C67.9453 25.3115 68.0361 25.6074 68.1533 25.8594V26H65.9824C65.8828 25.7715 65.8037 25.4814 65.7451 25.1299C65.6924 24.7725 65.666 24.4268 65.666 24.0928ZM65.9736 20.2168L65.9912 21.5264H64.4707C64.0781 21.5264 63.7324 21.5645 63.4336 21.6406C63.1348 21.7109 62.8857 21.8164 62.6865 21.957C62.4873 22.0977 62.3379 22.2676 62.2383 22.4668C62.1387 22.666 62.0889 22.8916 62.0889 23.1436C62.0889 23.3955 62.1475 23.627 62.2646 23.8379C62.3818 24.043 62.5518 24.2041 62.7744 24.3213C63.0029 24.4385 63.2783 24.4971 63.6006 24.4971C64.0342 24.4971 64.4121 24.4092 64.7344 24.2334C65.0625 24.0518 65.3203 23.832 65.5078 23.5742C65.6953 23.3105 65.7949 23.0615 65.8066 22.8271L66.4922 23.7676C66.4219 24.0078 66.3018 24.2656 66.1318 24.541C65.9619 24.8164 65.7393 25.0801 65.4639 25.332C65.1943 25.5781 64.8691 25.7803 64.4883 25.9385C64.1133 26.0967 63.6797 26.1758 63.1875 26.1758C62.5664 26.1758 62.0127 26.0527 61.5264 25.8066C61.04 25.5547 60.6592 25.2178 60.3838 24.7959C60.1084 24.3682 59.9707 23.8848 59.9707 23.3457C59.9707 22.8418 60.0645 22.3965 60.252 22.0098C60.4453 21.6172 60.7266 21.2891 61.0957 21.0254C61.4707 20.7617 61.9277 20.5625 62.4668 20.4277C63.0059 20.2871 63.6211 20.2168 64.3125 20.2168H65.9736ZM72.126 18.4238V26H70.0078V16.4902H72.0029L72.126 18.4238ZM71.7832 20.8936L71.0625 20.8848C71.0625 20.2285 71.1445 19.6221 71.3086 19.0654C71.4727 18.5088 71.7129 18.0254 72.0293 17.6152C72.3457 17.1992 72.7383 16.8799 73.207 16.6572C73.6816 16.4287 74.2295 16.3145 74.8506 16.3145C75.2842 16.3145 75.6797 16.3789 76.0371 16.5078C76.4004 16.6309 76.7139 16.8271 76.9775 17.0967C77.2471 17.3662 77.4521 17.7119 77.5928 18.1338C77.7393 18.5557 77.8125 19.0654 77.8125 19.6631V26H75.6943V19.8477C75.6943 19.3848 75.624 19.0215 75.4834 18.7578C75.3486 18.4941 75.1523 18.3066 74.8945 18.1953C74.6426 18.0781 74.3408 18.0195 73.9893 18.0195C73.5908 18.0195 73.251 18.0957 72.9697 18.248C72.6943 18.4004 72.4688 18.6084 72.293 18.8721C72.1172 19.1357 71.9883 19.4404 71.9062 19.7861C71.8242 20.1318 71.7832 20.501 71.7832 20.8936ZM77.6807 20.3311L76.6875 20.5508C76.6875 19.9766 76.7666 19.4346 76.9248 18.9248C77.0889 18.4092 77.3262 17.958 77.6367 17.5713C77.9531 17.1787 78.3428 16.8711 78.8057 16.6484C79.2686 16.4258 79.7988 16.3145 80.3965 16.3145C80.8828 16.3145 81.3164 16.3818 81.6973 16.5166C82.084 16.6455 82.4121 16.8506 82.6816 17.1318C82.9512 17.4131 83.1562 17.7793 83.2969 18.2305C83.4375 18.6758 83.5078 19.2148 83.5078 19.8477V26H81.3809V19.8389C81.3809 19.3584 81.3105 18.9863 81.1699 18.7227C81.0352 18.459 80.8418 18.2773 80.5898 18.1777C80.3379 18.0723 80.0361 18.0195 79.6846 18.0195C79.3564 18.0195 79.0664 18.0811 78.8145 18.2041C78.5684 18.3213 78.3604 18.4883 78.1904 18.7051C78.0205 18.916 77.8916 19.1592 77.8037 19.4346C77.7217 19.71 77.6807 20.0088 77.6807 20.3311ZM85.2832 21.3506V21.1484C85.2832 20.4629 85.3828 19.8271 85.582 19.2412C85.7812 18.6494 86.0684 18.1367 86.4434 17.7031C86.8242 17.2637 87.2871 16.9238 87.832 16.6836C88.3828 16.4375 89.0039 16.3145 89.6953 16.3145C90.3926 16.3145 91.0137 16.4375 91.5586 16.6836C92.1094 16.9238 92.5752 17.2637 92.9561 17.7031C93.3369 18.1367 93.627 18.6494 93.8262 19.2412C94.0254 19.8271 94.125 20.4629 94.125 21.1484V21.3506C94.125 22.0361 94.0254 22.6719 93.8262 23.2578C93.627 23.8438 93.3369 24.3564 92.9561 24.7959C92.5752 25.2295 92.1123 25.5693 91.5674 25.8154C91.0225 26.0557 90.4043 26.1758 89.7129 26.1758C89.0156 26.1758 88.3916 26.0557 87.8408 25.8154C87.2959 25.5693 86.833 25.2295 86.4521 24.7959C86.0713 24.3564 85.7812 23.8438 85.582 23.2578C85.3828 22.6719 85.2832 22.0361 85.2832 21.3506ZM87.4014 21.1484V21.3506C87.4014 21.7783 87.4453 22.1826 87.5332 22.5635C87.6211 22.9443 87.7588 23.2783 87.9463 23.5654C88.1338 23.8525 88.374 24.0781 88.667 24.2422C88.96 24.4062 89.3086 24.4883 89.7129 24.4883C90.1055 24.4883 90.4453 24.4062 90.7324 24.2422C91.0254 24.0781 91.2656 23.8525 91.4531 23.5654C91.6406 23.2783 91.7783 22.9443 91.8662 22.5635C91.96 22.1826 92.0068 21.7783 92.0068 21.3506V21.1484C92.0068 20.7266 91.96 20.3281 91.8662 19.9531C91.7783 19.5723 91.6377 19.2354 91.4443 18.9424C91.2568 18.6494 91.0166 18.4209 90.7236 18.2568C90.4365 18.0869 90.0938 18.002 89.6953 18.002C89.2969 18.002 88.9512 18.0869 88.6582 18.2568C88.3711 18.4209 88.1338 18.6494 87.9463 18.9424C87.7588 19.2354 87.6211 19.5723 87.5332 19.9531C87.4453 20.3281 87.4014 20.7266 87.4014 21.1484ZM101.235 23.4248C101.235 23.2139 101.183 23.0234 101.077 22.8535C100.972 22.6777 100.77 22.5195 100.471 22.3789C100.178 22.2383 99.7441 22.1094 99.1699 21.9922C98.666 21.8809 98.2031 21.749 97.7812 21.5967C97.3652 21.4385 97.0078 21.248 96.709 21.0254C96.4102 20.8027 96.1787 20.5391 96.0146 20.2344C95.8506 19.9297 95.7686 19.5781 95.7686 19.1797C95.7686 18.793 95.8535 18.4268 96.0234 18.0811C96.1934 17.7354 96.4365 17.4307 96.7529 17.167C97.0693 16.9033 97.4531 16.6953 97.9043 16.543C98.3613 16.3906 98.8711 16.3145 99.4336 16.3145C100.23 16.3145 100.913 16.4492 101.481 16.7188C102.056 16.9824 102.495 17.3428 102.8 17.7998C103.104 18.251 103.257 18.7607 103.257 19.3291H101.139C101.139 19.0771 101.074 18.8428 100.945 18.626C100.822 18.4033 100.635 18.2246 100.383 18.0898C100.131 17.9492 99.8145 17.8789 99.4336 17.8789C99.0703 17.8789 98.7686 17.9375 98.5283 18.0547C98.2939 18.166 98.1182 18.3125 98.001 18.4941C97.8896 18.6758 97.834 18.875 97.834 19.0918C97.834 19.25 97.8633 19.3936 97.9219 19.5225C97.9863 19.6455 98.0918 19.7598 98.2383 19.8652C98.3848 19.9648 98.584 20.0586 98.8359 20.1465C99.0938 20.2344 99.416 20.3193 99.8027 20.4014C100.529 20.5537 101.153 20.75 101.675 20.9902C102.202 21.2246 102.606 21.5293 102.888 21.9043C103.169 22.2734 103.31 22.7422 103.31 23.3105C103.31 23.7324 103.219 24.1191 103.037 24.4707C102.861 24.8164 102.604 25.1182 102.264 25.376C101.924 25.6279 101.517 25.8242 101.042 25.9648C100.573 26.1055 100.046 26.1758 99.46 26.1758C98.5986 26.1758 97.8691 26.0234 97.2715 25.7188C96.6738 25.4082 96.2197 25.0127 95.9092 24.5322C95.6045 24.0459 95.4521 23.542 95.4521 23.0205H97.5C97.5234 23.4131 97.6318 23.7266 97.8252 23.9609C98.0244 24.1895 98.2705 24.3564 98.5635 24.4619C98.8623 24.5615 99.1699 24.6113 99.4863 24.6113C99.8672 24.6113 100.187 24.5615 100.444 24.4619C100.702 24.3564 100.898 24.2158 101.033 24.04C101.168 23.8584 101.235 23.6533 101.235 23.4248ZM113.531 24.4883C113.877 24.4883 114.188 24.4209 114.463 24.2861C114.744 24.1455 114.97 23.9521 115.14 23.7061C115.315 23.46 115.412 23.1758 115.43 22.8535H117.425C117.413 23.4688 117.231 24.0283 116.88 24.5322C116.528 25.0361 116.062 25.4375 115.482 25.7363C114.902 26.0293 114.261 26.1758 113.558 26.1758C112.831 26.1758 112.198 26.0527 111.659 25.8066C111.12 25.5547 110.672 25.209 110.314 24.7695C109.957 24.3301 109.688 23.8232 109.506 23.249C109.33 22.6748 109.242 22.0596 109.242 21.4033V21.0957C109.242 20.4395 109.33 19.8242 109.506 19.25C109.688 18.6699 109.957 18.1602 110.314 17.7207C110.672 17.2812 111.12 16.9385 111.659 16.6924C112.198 16.4404 112.828 16.3145 113.549 16.3145C114.311 16.3145 114.979 16.4668 115.553 16.7715C116.127 17.0703 116.578 17.4893 116.906 18.0283C117.24 18.5615 117.413 19.1826 117.425 19.8916H115.43C115.412 19.54 115.324 19.2236 115.166 18.9424C115.014 18.6553 114.797 18.4268 114.516 18.2568C114.24 18.0869 113.909 18.002 113.522 18.002C113.095 18.002 112.74 18.0898 112.459 18.2656C112.178 18.4355 111.958 18.6699 111.8 18.9688C111.642 19.2617 111.527 19.5928 111.457 19.9619C111.393 20.3252 111.36 20.7031 111.36 21.0957V21.4033C111.36 21.7959 111.393 22.1768 111.457 22.5459C111.521 22.915 111.633 23.2461 111.791 23.5391C111.955 23.8262 112.178 24.0576 112.459 24.2334C112.74 24.4033 113.098 24.4883 113.531 24.4883ZM118.646 21.3506V21.1484C118.646 20.4629 118.746 19.8271 118.945 19.2412C119.145 18.6494 119.432 18.1367 119.807 17.7031C120.188 17.2637 120.65 16.9238 121.195 16.6836C121.746 16.4375 122.367 16.3145 123.059 16.3145C123.756 16.3145 124.377 16.4375 124.922 16.6836C125.473 16.9238 125.938 17.2637 126.319 17.7031C126.7 18.1367 126.99 18.6494 127.189 19.2412C127.389 19.8271 127.488 20.4629 127.488 21.1484V21.3506C127.488 22.0361 127.389 22.6719 127.189 23.2578C126.99 23.8438 126.7 24.3564 126.319 24.7959C125.938 25.2295 125.476 25.5693 124.931 25.8154C124.386 26.0557 123.768 26.1758 123.076 26.1758C122.379 26.1758 121.755 26.0557 121.204 25.8154C120.659 25.5693 120.196 25.2295 119.815 24.7959C119.435 24.3564 119.145 23.8438 118.945 23.2578C118.746 22.6719 118.646 22.0361 118.646 21.3506ZM120.765 21.1484V21.3506C120.765 21.7783 120.809 22.1826 120.896 22.5635C120.984 22.9443 121.122 23.2783 121.31 23.5654C121.497 23.8525 121.737 24.0781 122.03 24.2422C122.323 24.4062 122.672 24.4883 123.076 24.4883C123.469 24.4883 123.809 24.4062 124.096 24.2422C124.389 24.0781 124.629 23.8525 124.816 23.5654C125.004 23.2783 125.142 22.9443 125.229 22.5635C125.323 22.1826 125.37 21.7783 125.37 21.3506V21.1484C125.37 20.7266 125.323 20.3281 125.229 19.9531C125.142 19.5723 125.001 19.2354 124.808 18.9424C124.62 18.6494 124.38 18.4209 124.087 18.2568C123.8 18.0869 123.457 18.002 123.059 18.002C122.66 18.002 122.314 18.0869 122.021 18.2568C121.734 18.4209 121.497 18.6494 121.31 18.9424C121.122 19.2354 120.984 19.5723 120.896 19.9531C120.809 20.3281 120.765 20.7266 120.765 21.1484ZM131.364 18.5205V26H129.246V16.4902H131.241L131.364 18.5205ZM130.986 20.8936L130.301 20.8848C130.307 20.2109 130.4 19.5928 130.582 19.0303C130.77 18.4678 131.027 17.9844 131.355 17.5801C131.689 17.1758 132.088 16.8652 132.551 16.6484C133.014 16.4258 133.529 16.3145 134.098 16.3145C134.555 16.3145 134.968 16.3789 135.337 16.5078C135.712 16.6309 136.031 16.833 136.295 17.1143C136.564 17.3955 136.77 17.7617 136.91 18.2129C137.051 18.6582 137.121 19.2061 137.121 19.8564V26H134.994V19.8477C134.994 19.3906 134.927 19.0303 134.792 18.7666C134.663 18.4971 134.473 18.3066 134.221 18.1953C133.975 18.0781 133.667 18.0195 133.298 18.0195C132.935 18.0195 132.609 18.0957 132.322 18.248C132.035 18.4004 131.792 18.6084 131.593 18.8721C131.399 19.1357 131.25 19.4404 131.145 19.7861C131.039 20.1318 130.986 20.501 130.986 20.8936ZM142.377 24.3213L144.706 16.4902H146.903L143.599 26H142.228L142.377 24.3213ZM140.593 16.4902L142.966 24.3564L143.08 26H141.709L138.387 16.4902H140.593ZM152.282 26.1758C151.579 26.1758 150.943 26.0615 150.375 25.833C149.812 25.5986 149.332 25.2734 148.934 24.8574C148.541 24.4414 148.239 23.9521 148.028 23.3896C147.817 22.8271 147.712 22.2207 147.712 21.5703V21.2188C147.712 20.4746 147.82 19.8008 148.037 19.1973C148.254 18.5938 148.556 18.0781 148.942 17.6504C149.329 17.2168 149.786 16.8857 150.313 16.6572C150.841 16.4287 151.412 16.3145 152.027 16.3145C152.707 16.3145 153.302 16.4287 153.812 16.6572C154.321 16.8857 154.743 17.208 155.077 17.624C155.417 18.0342 155.669 18.5234 155.833 19.0918C156.003 19.6602 156.088 20.2871 156.088 20.9727V21.8779H148.74V20.3574H153.996V20.1904C153.984 19.8096 153.908 19.4521 153.768 19.1182C153.633 18.7842 153.425 18.5146 153.144 18.3096C152.862 18.1045 152.487 18.002 152.019 18.002C151.667 18.002 151.354 18.0781 151.078 18.2305C150.809 18.377 150.583 18.5908 150.401 18.8721C150.22 19.1533 150.079 19.4932 149.979 19.8916C149.886 20.2842 149.839 20.7266 149.839 21.2188V21.5703C149.839 21.9863 149.895 22.373 150.006 22.7305C150.123 23.082 150.293 23.3896 150.516 23.6533C150.738 23.917 151.008 24.125 151.324 24.2773C151.641 24.4238 152.001 24.4971 152.405 24.4971C152.915 24.4971 153.369 24.3945 153.768 24.1895C154.166 23.9844 154.512 23.6943 154.805 23.3193L155.921 24.4004C155.716 24.6992 155.449 24.9863 155.121 25.2617C154.793 25.5312 154.392 25.751 153.917 25.9209C153.448 26.0908 152.903 26.1758 152.282 26.1758ZM159.867 18.3008V26H157.749V16.4902H159.771L159.867 18.3008ZM162.776 16.4287L162.759 18.3975C162.63 18.374 162.489 18.3564 162.337 18.3447C162.19 18.333 162.044 18.3271 161.897 18.3271C161.534 18.3271 161.215 18.3799 160.939 18.4854C160.664 18.585 160.433 18.7314 160.245 18.9248C160.063 19.1123 159.923 19.3408 159.823 19.6104C159.724 19.8799 159.665 20.1816 159.647 20.5156L159.164 20.5508C159.164 19.9531 159.223 19.3994 159.34 18.8896C159.457 18.3799 159.633 17.9316 159.867 17.5449C160.107 17.1582 160.406 16.8564 160.764 16.6396C161.127 16.4229 161.546 16.3145 162.021 16.3145C162.149 16.3145 162.287 16.3262 162.434 16.3496C162.586 16.373 162.7 16.3994 162.776 16.4287ZM169.438 23.4248C169.438 23.2139 169.386 23.0234 169.28 22.8535C169.175 22.6777 168.973 22.5195 168.674 22.3789C168.381 22.2383 167.947 22.1094 167.373 21.9922C166.869 21.8809 166.406 21.749 165.984 21.5967C165.568 21.4385 165.211 21.248 164.912 21.0254C164.613 20.8027 164.382 20.5391 164.218 20.2344C164.054 19.9297 163.972 19.5781 163.972 19.1797C163.972 18.793 164.057 18.4268 164.227 18.0811C164.396 17.7354 164.64 17.4307 164.956 17.167C165.272 16.9033 165.656 16.6953 166.107 16.543C166.564 16.3906 167.074 16.3145 167.637 16.3145C168.434 16.3145 169.116 16.4492 169.685 16.7188C170.259 16.9824 170.698 17.3428 171.003 17.7998C171.308 18.251 171.46 18.7607 171.46 19.3291H169.342C169.342 19.0771 169.277 18.8428 169.148 18.626C169.025 18.4033 168.838 18.2246 168.586 18.0898C168.334 17.9492 168.018 17.8789 167.637 17.8789C167.273 17.8789 166.972 17.9375 166.731 18.0547C166.497 18.166 166.321 18.3125 166.204 18.4941C166.093 18.6758 166.037 18.875 166.037 19.0918C166.037 19.25 166.066 19.3936 166.125 19.5225C166.189 19.6455 166.295 19.7598 166.441 19.8652C166.588 19.9648 166.787 20.0586 167.039 20.1465C167.297 20.2344 167.619 20.3193 168.006 20.4014C168.732 20.5537 169.356 20.75 169.878 20.9902C170.405 21.2246 170.81 21.5293 171.091 21.9043C171.372 22.2734 171.513 22.7422 171.513 23.3105C171.513 23.7324 171.422 24.1191 171.24 24.4707C171.064 24.8164 170.807 25.1182 170.467 25.376C170.127 25.6279 169.72 25.8242 169.245 25.9648C168.776 26.1055 168.249 26.1758 167.663 26.1758C166.802 26.1758 166.072 26.0234 165.475 25.7188C164.877 25.4082 164.423 25.0127 164.112 24.5322C163.808 24.0459 163.655 23.542 163.655 23.0205H165.703C165.727 23.4131 165.835 23.7266 166.028 23.9609C166.228 24.1895 166.474 24.3564 166.767 24.4619C167.065 24.5615 167.373 24.6113 167.689 24.6113C168.07 24.6113 168.39 24.5615 168.647 24.4619C168.905 24.3564 169.102 24.2158 169.236 24.04C169.371 23.8584 169.438 23.6533 169.438 23.4248ZM178.729 24.0928V19.5576C178.729 19.2178 178.667 18.9248 178.544 18.6787C178.421 18.4326 178.233 18.2422 177.981 18.1074C177.735 17.9727 177.425 17.9053 177.05 17.9053C176.704 17.9053 176.405 17.9639 176.153 18.0811C175.901 18.1982 175.705 18.3564 175.564 18.5557C175.424 18.7549 175.354 18.9805 175.354 19.2324H173.244C173.244 18.8574 173.335 18.4941 173.517 18.1426C173.698 17.791 173.962 17.4775 174.308 17.2021C174.653 16.9268 175.066 16.71 175.547 16.5518C176.027 16.3936 176.566 16.3145 177.164 16.3145C177.879 16.3145 178.512 16.4346 179.062 16.6748C179.619 16.915 180.056 17.2783 180.372 17.7646C180.694 18.2451 180.855 18.8486 180.855 19.5752V23.8027C180.855 24.2363 180.885 24.626 180.943 24.9717C181.008 25.3115 181.099 25.6074 181.216 25.8594V26H179.045C178.945 25.7715 178.866 25.4814 178.808 25.1299C178.755 24.7725 178.729 24.4268 178.729 24.0928ZM179.036 20.2168L179.054 21.5264H177.533C177.141 21.5264 176.795 21.5645 176.496 21.6406C176.197 21.7109 175.948 21.8164 175.749 21.957C175.55 22.0977 175.4 22.2676 175.301 22.4668C175.201 22.666 175.151 22.8916 175.151 23.1436C175.151 23.3955 175.21 23.627 175.327 23.8379C175.444 24.043 175.614 24.2041 175.837 24.3213C176.065 24.4385 176.341 24.4971 176.663 24.4971C177.097 24.4971 177.475 24.4092 177.797 24.2334C178.125 24.0518 178.383 23.832 178.57 23.5742C178.758 23.3105 178.857 23.0615 178.869 22.8271L179.555 23.7676C179.484 24.0078 179.364 24.2656 179.194 24.541C179.024 24.8164 178.802 25.0801 178.526 25.332C178.257 25.5781 177.932 25.7803 177.551 25.9385C177.176 26.0967 176.742 26.1758 176.25 26.1758C175.629 26.1758 175.075 26.0527 174.589 25.8066C174.103 25.5547 173.722 25.2178 173.446 24.7959C173.171 24.3682 173.033 23.8848 173.033 23.3457C173.033 22.8418 173.127 22.3965 173.314 22.0098C173.508 21.6172 173.789 21.2891 174.158 21.0254C174.533 20.7617 174.99 20.5625 175.529 20.4277C176.068 20.2871 176.684 20.2168 177.375 20.2168H179.036ZM185.197 18.3008V26H183.079V16.4902H185.101L185.197 18.3008ZM188.106 16.4287L188.089 18.3975C187.96 18.374 187.819 18.3564 187.667 18.3447C187.521 18.333 187.374 18.3271 187.228 18.3271C186.864 18.3271 186.545 18.3799 186.27 18.4854C185.994 18.585 185.763 18.7314 185.575 18.9248C185.394 19.1123 185.253 19.3408 185.153 19.6104C185.054 19.8799 184.995 20.1816 184.978 20.5156L184.494 20.5508C184.494 19.9531 184.553 19.3994 184.67 18.8896C184.787 18.3799 184.963 17.9316 185.197 17.5449C185.438 17.1582 185.736 16.8564 186.094 16.6396C186.457 16.4229 186.876 16.3145 187.351 16.3145C187.479 16.3145 187.617 16.3262 187.764 16.3496C187.916 16.373 188.03 16.3994 188.106 16.4287ZM193.397 22.2295H191.438C191.443 21.6846 191.49 21.2275 191.578 20.8584C191.666 20.4834 191.812 20.1436 192.018 19.8389C192.229 19.5342 192.507 19.2119 192.853 18.8721C193.122 18.6143 193.365 18.3711 193.582 18.1426C193.799 17.9082 193.972 17.6621 194.101 17.4043C194.229 17.1406 194.294 16.8389 194.294 16.499C194.294 16.1299 194.232 15.8164 194.109 15.5586C193.986 15.3008 193.805 15.1045 193.564 14.9697C193.33 14.835 193.037 14.7676 192.686 14.7676C192.393 14.7676 192.117 14.8262 191.859 14.9434C191.602 15.0547 191.394 15.2305 191.235 15.4707C191.077 15.7051 190.992 16.0156 190.98 16.4023H188.862C188.874 15.6641 189.05 15.043 189.39 14.5391C189.729 14.0352 190.187 13.6572 190.761 13.4053C191.335 13.1533 191.977 13.0273 192.686 13.0273C193.471 13.0273 194.142 13.1621 194.698 13.4316C195.255 13.6953 195.68 14.082 195.973 14.5918C196.271 15.0957 196.421 15.7051 196.421 16.4199C196.421 16.9355 196.318 17.4043 196.113 17.8262C195.908 18.2422 195.642 18.6318 195.313 18.9951C194.985 19.3525 194.631 19.71 194.25 20.0674C193.922 20.3662 193.699 20.6914 193.582 21.043C193.465 21.3887 193.403 21.7842 193.397 22.2295ZM191.262 24.9717C191.262 24.6553 191.37 24.3887 191.587 24.1719C191.804 23.9492 192.1 23.8379 192.475 23.8379C192.85 23.8379 193.146 23.9492 193.362 24.1719C193.579 24.3887 193.688 24.6553 193.688 24.9717C193.688 25.2881 193.579 25.5576 193.362 25.7803C193.146 25.9971 192.85 26.1055 192.475 26.1055C192.1 26.1055 191.804 25.9971 191.587 25.7803C191.37 25.5576 191.262 25.2881 191.262 24.9717Z" fill="white"/>
<g clip-path="url(#clip0_48_705)">
<path fill-rule="evenodd" clip-rule="evenodd" d="M25.1061 18.6856C25.9153 20.1401 27.0563 21.1753 28.5642 21.791C28.7047 21.8473 28.9774 21.7725 29.0946 21.66C29.3624 21.4044 29.5713 21.0859 29.8077 20.7942C30.044 20.4993 30.3372 20.3635 30.7004 20.5306C31.5233 20.9151 32.3555 21.2812 33.1495 21.717C33.3473 21.8288 33.5184 22.1755 33.5209 22.4166C33.5431 24.051 32.3842 25.0765 30.8837 25.1531C28.8667 25.253 27.0765 24.4375 25.5206 23.2102C23.8047 21.8573 22.4018 20.2112 21.6678 18.1055C21.2061 16.7813 21.4915 15.5611 22.4592 14.535C23.3766 13.5607 24.683 13.7941 25.2017 15.0152C25.4094 15.5076 25.5726 16.0248 25.82 16.4947C26.146 17.1172 25.9874 17.6259 25.5743 18.1154C25.4244 18.2905 25.2794 18.4727 25.1061 18.6856Z" fill="white"/>
<path d="M27.4882 32C25.6744 32 23.8776 31.5935 22.1441 30.7917C22.1211 30.78 22.0533 30.763 21.9713 30.763C21.9202 30.763 21.8887 30.7689 21.8808 30.7712C20.8627 31.0214 19.8284 31.3029 18.8287 31.5759C18.4592 31.6755 18.0915 31.7751 17.7229 31.8745C17.455 31.9462 17.2152 31.9812 16.9908 31.9812C16.4508 31.9812 15.9678 31.7774 15.5919 31.3903C14.7718 30.5455 15.0794 29.5578 15.181 29.2347C15.6126 27.8451 15.9993 26.5925 16.3478 25.3187C16.3594 25.2723 16.3486 25.1579 16.3288 25.1115C14.679 21.8029 14.5604 17.9614 16.0033 14.5742C17.4371 11.2152 20.26 8.6694 23.7491 7.59091C24.8903 7.23881 27.0815 7 27.554 7C27.594 7 27.6326 7.00171 27.6723 7.00569C27.6837 7.00569 27.6973 7.00569 27.7103 7.00569C30.5916 7.00569 33.4258 8.08931 35.6913 10.0581C38.019 12.0813 39.5122 14.8628 39.8941 17.8882C40.3064 21.1414 39.5099 24.3418 37.6544 26.8964C35.7926 29.4619 32.9885 31.1999 29.7616 31.7908C29.0043 31.9294 28.2401 32 27.4882 32ZM21.971 28.8294C22.2154 28.8294 22.584 28.865 22.9517 29.0361C24.4298 29.7189 25.9561 30.0665 27.4882 30.0659C28.1241 30.0659 28.7724 30.0067 29.4157 29.8894C35.1082 28.8465 38.7117 23.9023 37.9821 18.1325C37.3312 12.9762 32.8186 8.93838 27.7103 8.93838L27.4022 8.94123C26.848 8.9825 25.1559 9.17862 24.3166 9.43764C21.3703 10.3493 18.9848 12.4986 17.7757 15.3353C16.5549 18.1959 16.6559 21.4468 18.0535 24.2499C18.287 24.7184 18.3454 25.3253 18.2064 25.8316C17.8497 27.1341 17.4581 28.4033 17.02 29.8106C16.9797 29.9415 16.9712 30.0095 16.9689 30.0386C16.9706 30.0391 16.9718 30.0408 16.974 30.0425C16.976 30.0448 16.9772 30.0465 16.9794 30.0482C17.0078 30.0494 17.0836 30.046 17.224 30.0075C17.5918 29.9082 17.9576 29.8097 18.323 29.7101C19.3346 29.4343 20.3817 29.1502 21.4228 28.8943C21.5953 28.8511 21.7803 28.8294 21.971 28.8294Z" fill="white"/>
</g>
<defs>
<clipPath id="clip0_48_705">
<rect width="25" height="25" fill="white" transform="translate(15 7)"/>
</clipPath>
</defs>
</svg>
