<svg width="38" height="41" viewBox="0 0 38 41" fill="none" xmlns="http://www.w3.org/2000/svg">
<path d="M18.9556 40.0156C16.2024 40.0156 13.4751 39.3653 10.8438 38.0824C10.8089 38.0637 10.706 38.0364 10.5815 38.0364C10.504 38.0364 10.4561 38.0459 10.4441 38.0496C8.89864 38.4499 7.32865 38.9003 5.81121 39.337C5.2504 39.4964 4.69218 39.6558 4.13267 39.8148C3.72607 39.9296 3.3621 39.9856 3.0214 39.9856C2.20173 39.9856 1.46864 39.6595 0.897927 39.0401C-0.346868 37.6884 0.120038 36.1081 0.274237 35.5912C0.92937 33.3679 1.51645 31.3636 2.04538 29.3256C2.06304 29.2513 2.04667 29.0682 2.01652 28.994C-0.487715 23.7002 -0.667758 17.5539 1.52248 12.1344C3.69893 6.75994 7.98378 2.68666 13.28 0.961077C15.0124 0.397722 18.3384 0.015625 19.0556 0.015625C19.1163 0.015625 19.1749 0.0183575 19.2352 0.0247334C19.2524 0.0247334 19.2731 0.0247334 19.2929 0.0247334C23.6665 0.0247334 27.9686 1.75852 31.4075 4.90866C34.9407 8.14578 37.2072 12.5961 37.7869 17.4368C38.4128 22.6418 37.2037 27.7625 34.3872 31.8499C31.5612 35.9546 27.3048 38.7354 22.4066 39.6809C21.257 39.9027 20.0971 40.0156 18.9556 40.0156ZM10.5811 34.9427C10.9519 34.9427 11.5114 34.9996 12.0696 35.2733C14.3133 36.3659 16.6302 36.922 18.9556 36.921C19.9209 36.921 20.9051 36.8263 21.8816 36.6387C30.5223 34.97 35.9921 27.0594 34.8847 17.8276C33.8966 9.57762 27.0468 3.11704 19.2929 3.11704L18.8251 3.12159C17.9839 3.18763 15.4155 3.50141 14.1414 3.91584C9.66921 5.37455 6.0481 8.81343 4.21279 13.3521C2.35981 17.9291 2.51315 23.1305 4.63447 27.6154C4.98895 28.3651 5.07768 29.336 4.86663 30.1462C4.3252 32.2302 3.7308 34.2609 3.06577 36.5125C3.0046 36.722 2.99168 36.8309 2.98823 36.8773C2.99082 36.8782 2.99254 36.881 2.99599 36.8837C2.999 36.8873 3.00073 36.8901 3.00417 36.8928C3.04724 36.8946 3.16225 36.8892 3.37546 36.8277C3.93368 36.6687 4.48888 36.5112 5.04365 36.3518C6.57919 35.9105 8.16856 35.456 9.74889 35.0465C10.0108 34.9773 10.2916 34.9427 10.5811 34.9427Z" fill="white"/>
</svg>
