<svg width="25" height="25" viewBox="0 0 25 25" fill="none" xmlns="http://www.w3.org/2000/svg">
<g clip-path="url(#clip0_72_302)">
<path fill-rule="evenodd" clip-rule="evenodd" d="M10.1061 11.6856C10.9153 13.1401 12.0563 14.1753 13.5642 14.791C13.7047 14.8473 13.9774 14.7725 14.0946 14.66C14.3624 14.4044 14.5713 14.0859 14.8077 13.7942C15.044 13.4993 15.3372 13.3635 15.7004 13.5306C16.5233 13.9151 17.3555 14.2812 18.1495 14.717C18.3473 14.8288 18.5184 15.1755 18.5209 15.4166C18.5431 17.051 17.3842 18.0765 15.8837 18.1531C13.8667 18.253 12.0765 17.4375 10.5206 16.2102C8.80475 14.8573 7.40184 13.2112 6.66776 11.1055C6.20608 9.78135 6.49155 8.56111 7.45916 7.53499C8.37656 6.56068 9.68298 6.79408 10.2017 8.01517C10.4094 8.5076 10.5726 9.02478 10.82 9.49472C11.146 10.1172 10.9874 10.6259 10.5743 11.1154C10.4244 11.2905 10.2794 11.4727 10.1061 11.6856Z" fill="white"/>
<path d="M12.4882 25C10.6744 25 8.87761 24.5935 7.14413 23.7917C7.12114 23.78 7.05332 23.763 6.97132 23.763C6.92024 23.763 6.88874 23.7689 6.8808 23.7712C5.86267 24.0214 4.82837 24.3029 3.82869 24.5759C3.45924 24.6755 3.09148 24.7751 2.72288 24.8745C2.45501 24.9462 2.21524 24.9812 1.99078 24.9812C1.45079 24.9812 0.967834 24.7774 0.591854 24.3903C-0.228209 23.5455 0.0793852 22.5578 0.180971 22.2347C0.612568 20.8451 0.999331 19.5925 1.34779 18.3187C1.35942 18.2723 1.34864 18.1579 1.32878 18.1115C-0.320998 14.8029 -0.43961 10.9614 1.0033 7.5742C2.43714 4.2152 5.25997 1.6694 8.74907 0.590908C9.89035 0.238811 12.0815 0 12.554 0C12.594 0 12.6326 0.00170782 12.6723 0.00569275C12.6837 0.00569275 12.6973 0.00569275 12.7103 0.00569275C15.5916 0.00569275 18.4258 1.08931 20.6913 3.05815C23.019 5.08135 24.5122 7.86283 24.8941 10.8882C25.3064 14.1414 24.5099 17.3418 22.6544 19.8964C20.7926 22.4619 17.9885 24.1999 14.7616 24.7908C14.0043 24.9294 13.2401 25 12.4882 25ZM6.97104 21.8294C7.21535 21.8294 7.58395 21.865 7.9517 22.0361C9.4298 22.7189 10.9561 23.0665 12.4882 23.0659C13.1241 23.0659 13.7724 23.0067 14.4157 22.8894C20.1082 21.8465 23.7117 16.9023 22.9821 11.1325C22.3312 5.97625 17.8186 1.93838 12.7103 1.93838L12.4022 1.94123C11.848 1.9825 10.1559 2.17862 9.31659 2.43764C6.37032 3.34933 3.98476 5.49863 2.77566 8.33533C1.55493 11.1959 1.65595 14.4468 3.05346 17.2499C3.28699 17.7184 3.34545 18.3253 3.20641 18.8316C2.84972 20.1341 2.45814 21.4033 2.02001 22.8106C1.97972 22.9415 1.97121 23.0095 1.96894 23.0386C1.97064 23.0391 1.97177 23.0408 1.97404 23.0425C1.97603 23.0448 1.97716 23.0465 1.97943 23.0482C2.00781 23.0494 2.08357 23.046 2.22403 23.0075C2.59179 22.9082 2.95755 22.8097 3.32303 22.7101C4.33463 22.4343 5.3817 22.1502 6.42281 21.8943C6.59534 21.8511 6.78035 21.8294 6.97104 21.8294Z" fill="white"/>
</g>
<defs>
<clipPath id="clip0_72_302">
<rect width="25" height="25" fill="white"/>
</clipPath>
</defs>
</svg>
